<?xml version="1.0" standalone="no"?>
<!DOCTYPE svg PUBLIC "-//W3C//DTD SVG 20010904//EN"
 "http://www.w3.org/TR/2001/REC-SVG-20010904/DTD/svg10.dtd">
<svg version="1.0" xmlns="http://www.w3.org/2000/svg"
 width="64.000000pt" height="64.000000pt" viewBox="0 0 1024.000000 1024.000000"
 preserveAspectRatio="xMidYMid meet">

<g transform="translate(0.000000,1024.000000) scale(0.100000,-0.100000)"
fill="#000000" stroke="none">
<path d="M4915 10233 c-806 -50 -1431 -212 -2085 -539 -706 -354 -1326 -871
-1801 -1504 -433 -576 -744 -1248 -898 -1941 -177 -790 -168 -1579 25 -2364
181 -735 527 -1420 1019 -2020 769 -936 1885 -1584 3075 -1784 510 -86 965
-99 1459 -40 1161 137 2204 642 3026 1464 822 822 1327 1865 1464 3026 59 494
46 949 -40 1459 -200 1190 -848 2306 -1784 3075 -660 541 -1415 901 -2244
1070 -377 76 -895 118 -1216 98z m-736 -2532 c12 -16 52 -93 91 -172 38 -78
73 -146 78 -151 4 -4 57 -2 118 6 232 31 418 39 755 33 300 -5 377 -10 624
-42 l50 -6 79 165 c44 91 88 173 98 183 17 15 25 15 121 -1 363 -64 938 -245
1242 -391 l70 -34 94 -145 c670 -1042 982 -2158 940 -3362 -10 -310 -17 -379
-42 -410 -24 -32 -379 -267 -547 -364 -184 -106 -521 -269 -710 -343 -199 -79
-428 -157 -458 -157 -18 0 -44 33 -126 158 -132 199 -258 424 -251 445 4 8 43
29 88 47 99 38 442 207 456 224 7 8 -3 25 -34 59 -32 36 -50 47 -72 47 -17 0
-90 -25 -164 -56 -270 -114 -597 -209 -884 -258 -263 -45 -349 -51 -740 -50
-321 2 -389 5 -513 23 -350 53 -729 161 -1054 301 l-97 42 -55 -43 c-59 -46
-68 -64 -37 -74 10 -3 31 -17 45 -30 29 -27 265 -144 394 -195 45 -18 82 -36
82 -41 0 -55 -334 -589 -368 -589 -19 0 -290 92 -395 135 -38 15 -78 28 -90
29 -70 8 -516 229 -773 383 -216 130 -461 298 -468 321 -12 38 -28 292 -33
520 -7 299 13 581 63 927 119 807 430 1613 908 2348 l73 113 114 51 c320 142
715 268 1094 348 201 42 208 43 234 6z"/>
<path d="M3864 5535 c-138 -30 -288 -137 -373 -268 -90 -138 -132 -323 -112
-490 22 -186 83 -309 214 -426 98 -87 185 -135 286 -157 90 -19 144 -17 235 6
110 28 190 74 271 155 82 82 135 168 172 280 24 71 27 96 27 215 1 112 -3 149
-22 215 -55 190 -177 341 -334 415 -46 21 -103 42 -126 46 -23 4 -45 11 -48
15 -8 13 -120 9 -190 -6z"/>
<path d="M6134 5536 c-103 -24 -200 -80 -285 -165 -86 -87 -135 -167 -174
-291 -38 -117 -41 -295 -7 -413 40 -140 66 -180 202 -317 85 -86 168 -132 277
-155 92 -20 146 -19 237 5 109 28 190 74 271 155 82 82 135 168 172 280 23 70
26 97 27 215 1 101 -4 150 -17 195 -9 33 -24 84 -32 113 -17 64 -89 176 -146
227 -66 59 -157 114 -228 136 -85 26 -218 33 -297 15z"/>
</g>
</svg>
