<?xml version="1.0" standalone="no"?>
<!DOCTYPE svg PUBLIC "-//W3C//DTD SVG 20010904//EN"
 "http://www.w3.org/TR/2001/REC-SVG-20010904/DTD/svg10.dtd">
<svg version="1.0" xmlns="http://www.w3.org/2000/svg"
 width="64.000000pt" height="64.000000pt" viewBox="0 0 1000.000000 1000.000000"
 preserveAspectRatio="xMidYMid meet">

<g transform="translate(0.000000,1000.000000) scale(0.100000,-0.100000)"
fill="#000000" stroke="none">
<path d="M0 5000 l0 -5000 5000 0 5000 0 0 5000 0 5000 -5000 0 -5000 0 0
-5000z m4374 1098 c465 -1019 754 -1641 759 -1633 5 10 804 1999 1314 3273 4
9 200 12 934 12 l929 0 0 -59 0 -60 -282 -271 c-182 -174 -289 -284 -300 -308
-16 -35 -17 -162 -18 -1978 l0 -1941 23 -39 c12 -22 144 -158 292 -304 l270
-265 3 -57 3 -58 -1321 0 -1320 0 0 58 0 58 278 268 c152 148 285 281 295 296
16 25 17 114 15 1578 l-3 1552 -645 -1638 c-354 -900 -691 -1755 -748 -1899
l-104 -263 -102 0 -103 0 -874 1907 -874 1906 -3 -1331 c-2 -1329 -2 -1331 19
-1387 17 -45 94 -145 400 -516 l379 -459 0 -60 0 -60 -1000 0 -1000 0 0 60 0
60 332 402 c182 222 350 423 371 448 22 25 51 68 64 97 l24 52 -1 1607 0 1607
-28 47 c-15 27 -174 225 -354 440 l-328 392 0 53 c0 28 3 55 7 58 3 4 443 6
977 5 l970 -3 750 -1647z"/>
</g>
</svg>
