<?xml version="1.0" standalone="no"?>
<!DOCTYPE svg PUBLIC "-//W3C//DTD SVG 20010904//EN"
 "http://www.w3.org/TR/2001/REC-SVG-20010904/DTD/svg10.dtd">
<svg version="1.0" xmlns="http://www.w3.org/2000/svg"
 width="64.000000pt" height="64.000000pt" viewBox="0 0 980.000000 980.000000"
 preserveAspectRatio="xMidYMid meet">

<g transform="translate(0.000000,980.000000) scale(0.100000,-0.100000)"
fill="#000000" stroke="none">
<path d="M4560 9789 c-1035 -75 -1992 -461 -2800 -1127 -150 -124 -500 -475
-626 -627 -877 -1062 -1266 -2400 -1094 -3760 117 -921 492 -1781 1098 -2515
122 -148 474 -500 622 -622 734 -606 1594 -981 2515 -1097 1374 -174 2726 225
3790 1118 120 101 395 371 509 501 576 655 962 1433 1130 2280 271 1360 -45
2771 -869 3880 -195 261 -499 588 -739 793 -771 661 -1679 1052 -2696 1162
-174 19 -664 27 -840 14z m1875 -2879 c244 -28 484 -137 656 -297 l64 -61 115
29 c166 41 305 93 468 174 164 81 160 83 96 -54 -78 -170 -239 -362 -384 -460
l-65 -43 55 6 c141 17 409 90 529 142 30 14 56 22 59 19 7 -6 -122 -176 -199
-261 -79 -87 -202 -203 -290 -272 l-66 -51 -6 -203 c-3 -112 -13 -259 -22
-328 -158 -1257 -990 -2319 -2126 -2715 -237 -82 -455 -132 -729 -167 -162
-20 -662 -17 -820 5 -453 64 -852 201 -1227 419 -57 33 -103 61 -103 63 0 2
82 1 183 -2 491 -14 943 113 1349 379 98 64 155 108 141 108 -5 0 -47 5 -93
11 -368 45 -673 244 -870 566 -30 51 -102 214 -96 220 2 2 49 -2 106 -8 76 -8
131 -8 210 0 97 10 219 38 178 40 -9 1 -59 15 -110 32 -438 145 -760 558 -785
1007 l-6 102 87 -41 c101 -47 249 -87 356 -96 l75 -6 -61 46 c-135 102 -254
252 -334 420 -76 157 -102 268 -107 457 -4 132 -2 171 17 260 22 106 87 286
118 328 l18 23 73 -85 c95 -111 282 -291 401 -387 450 -360 950 -587 1511
-683 133 -23 378 -51 385 -43 2 1 -1 20 -7 42 -17 71 -22 275 -10 368 51 382
283 706 631 882 130 65 246 98 425 119 62 7 123 6 210 -4z"/>
</g>
</svg>
